<svg width="123" height="123" viewBox="0 0 123 123" fill="none" xmlns="http://www.w3.org/2000/svg">
<g clip-path="url(#clip0)">
<path d="M19.7094 84.105C1.73222 115.569 0.652923 115.37 3.06615 119.523C5.47435 123.671 6.27198 122.641 39.0961 122.641C45.8033 122.641 46.8634 118.307 55.6648 102.904C41.3499 101.423 28.6455 94.4357 19.7094 84.105Z" fill="#2191BE"/>
<path d="M77.3008 42.2998C63.3082 42.2998 65.9481 44.22 61.6201 30.9059C57.2919 44.2203 59.9397 42.2998 45.9394 42.2998C57.262 50.5261 56.2552 47.4218 51.928 60.7338C63.2963 52.4739 59.9205 52.4569 71.3123 60.7338C66.9862 47.4259 65.9668 50.5348 77.3008 42.2998Z" fill="#6C6C6C"/>
<path d="M107.513 60.969C116.028 29.5995 92.3201 0.228455 61.3801 0.228455C28.4026 0.228455 4.8988 33.1514 16.4066 64.5597C31.6965 107.197 94.7072 106.526 107.513 60.969ZM61.6199 62.594C46.6794 73.4494 45.7724 75.1138 42.9629 73.0735C40.1409 71.024 41.4722 69.6101 47.1657 52.0905C32.2678 41.2679 30.3578 40.9053 31.4321 37.5861C32.5102 34.2716 34.2646 35.0994 52.6861 35.0994C58.3775 17.5793 58.1314 15.655 61.6199 15.655C65.1057 15.655 64.8597 17.5712 70.5537 35.0994C88.9757 35.0994 90.7299 34.2718 91.8077 37.5861C92.8813 40.9034 90.9783 41.2636 76.0741 52.0905C81.7884 69.6738 83.0841 71.0348 80.2769 73.0735C77.453 75.1241 76.5078 73.4111 61.6199 62.594Z" fill="#2191BE"/>
<path d="M103.192 83.9371C94.297 94.3062 81.619 101.341 67.3182 102.88L75.9856 118.047C77.6057 120.882 80.6397 122.641 83.9039 122.641C116.691 122.641 117.52 123.681 119.934 119.523C122.35 115.365 121.268 115.57 103.192 83.9371Z" fill="#2191BE"/>
</g>
<defs>
<clipPath id="clip0">
<rect width="122.528" height="122.528" fill="white" transform="translate(0.236038 0.228455)"/>
</clipPath>
</defs>
</svg>
