<svg width="159" height="111" viewBox="0 0 159 111" fill="none" xmlns="http://www.w3.org/2000/svg">
<path d="M94.764 9.35571C89.994 14.43 89.994 18.0771 94.764 14.1129C97.308 12.0514 97.467 12.5271 96.513 19.5043C93.015 44.5586 71.868 65.1729 44.52 70.0886C37.842 71.1986 35.298 72.3086 36.411 73.4186C38.637 75.6386 54.537 72.3086 65.19 67.0757C82.68 58.5129 97.467 38.5329 99.693 20.4557C100.488 13.1614 100.806 12.6857 103.35 15.0643C108.12 19.3457 108.279 15.0643 103.668 9.67285L99.375 4.59857L94.764 9.35571Z" fill="#6C6C6C"/>
<path d="M106.53 65.8071V107.829H114.48H122.43V65.8071V23.7857H114.48H106.53V65.8071Z" fill="#2191BE"/>
<path d="M82.68 85.6285V107.987L91.107 107.511L99.375 107.036V85.6285V64.2214L91.107 63.7457L82.68 63.27V85.6285Z" fill="#6C6C6C"/>
<path d="M58.83 92.9228V107.987L67.257 107.511L75.525 107.036L76.002 92.2885L76.479 77.7H67.575H58.83V92.9228Z" fill="#6C6C6C"/>
<path d="M35.616 89.2757C35.139 90.5443 34.98 94.9843 35.298 99.2657L35.775 107.036L44.202 107.511L52.629 107.987L52.152 97.9971L51.675 88.0071L44.043 87.5314C38.637 87.2143 36.252 87.69 35.616 89.2757Z" fill="#6C6C6C"/>
</svg>
