<svg width="108" height="110" viewBox="0 0 108 110" fill="none" xmlns="http://www.w3.org/2000/svg">
<g clip-path="url(#clip0)">
<path d="M105.75 59.5801C106.994 59.5801 108 58.5551 108 57.2885V45.8307C108 40.7754 103.964 36.6643 98.9996 36.6643H82.0634C81.4172 35.2066 80.9989 33.686 80.9989 32.0812C80.9989 27.9321 83.26 24.0964 86.9009 22.0712C87.4304 21.7758 87.8238 21.2745 87.9865 20.6814C88.1512 20.0906 88.0744 19.4551 87.7755 18.9202L82.2931 9.1675C81.0955 7.04149 79.1618 5.52196 76.848 4.89099C74.5451 4.26431 72.137 4.59344 70.0758 5.81521L4.45935 44.7206C0.200808 47.2449 -1.26462 52.853 1.18971 57.2169L6.85884 67.3097C7.15985 67.8468 7.66085 68.2363 8.24748 68.3905C8.83201 68.545 9.45598 68.4533 9.97469 68.1353C11.7897 67.0207 13.7322 66.4546 15.7472 66.4546C20.6588 66.4546 24.9494 69.7502 26.41 74.5174C24.9534 79.1278 20.7516 82.4958 15.7472 82.4958C14.5035 82.4958 13.497 83.5207 13.497 84.7874V96.2452C13.497 101.301 17.5335 105.412 22.4974 105.412H98.9998C103.964 105.412 108 101.301 108 96.2452V84.7874C108 83.5207 106.994 82.4958 105.75 82.4958C99.547 82.4958 94.4998 77.3554 94.4998 71.0379C94.4996 64.7205 99.5468 59.5801 105.75 59.5801ZM72.3416 9.77635C73.359 9.17201 74.5544 9.00423 75.6838 9.31767C76.833 9.6309 77.7911 10.3873 78.3866 11.4458L82.8099 19.3142C78.8701 22.324 76.4991 27.0349 76.4991 32.0812C76.4991 33.6353 76.7503 35.1761 77.1948 36.6643H26.9913L72.3416 9.77635ZM15.747 61.8718C13.6882 61.8718 11.6336 62.306 9.70215 63.143L5.09661 54.9412C3.86385 52.7524 4.59562 49.9441 6.72257 48.682L13.62 44.5926C13.5652 45.0016 13.497 45.4068 13.497 45.8309V57.2887C13.497 58.5554 14.5035 59.5803 15.7472 59.5803C19.8872 59.5803 23.4724 61.8956 25.4259 65.2969C22.7315 63.1378 19.3562 61.8718 15.747 61.8718ZM89.9993 71.0379C89.9993 79.1054 95.8772 85.8012 103.5 86.9156V96.2452C103.5 98.7717 101.48 100.828 98.9996 100.828H44.998V96.818C44.998 95.5513 43.9915 94.5263 42.7478 94.5263C41.5041 94.5263 40.4977 95.5513 40.4977 96.818V100.828H22.4972C20.0165 100.828 17.9971 98.7717 17.9971 96.2452V86.9156C25.6196 85.801 31.4975 79.1054 31.4975 71.0379C31.4975 62.9704 25.6196 56.2747 17.9971 55.1603V45.8307C17.9971 43.3042 20.0165 41.2476 22.4972 41.2476H40.4977V46.4036C40.4977 47.6703 41.5041 48.6953 42.7478 48.6953C43.9915 48.6953 44.998 47.6703 44.998 46.4036V41.2476H98.9996C101.48 41.2476 103.5 43.3042 103.5 45.8307V55.1603C95.8772 56.2747 89.9993 62.9704 89.9993 71.0379Z" fill="#2191BE"/>
<path d="M42.7478 57.8615C41.5041 57.8615 40.4977 58.8864 40.4977 60.1531V64.7362C40.4977 66.0028 41.5041 67.0278 42.7478 67.0278C43.9915 67.0278 44.998 66.0028 44.998 64.7362V60.1531C44.998 58.8864 43.9915 57.8615 42.7478 57.8615Z" fill="#2191BE"/>
<path d="M42.7478 76.194C41.5041 76.194 40.4977 77.219 40.4977 78.4856V83.0687C40.4977 84.3353 41.5041 85.3603 42.7478 85.3603C43.9915 85.3603 44.998 84.3353 44.998 83.0687V78.4856C44.998 77.219 43.9915 76.194 42.7478 76.194Z" fill="#2191BE"/>
<path d="M84.5983 50.8727C83.6073 50.1186 82.1944 50.3199 81.4495 51.3313L54.4487 87.9967C53.7015 89.0081 53.9038 90.445 54.8991 91.2035C55.3034 91.5125 55.7757 91.6622 56.2459 91.6622C56.9315 91.6622 57.6061 91.3466 58.0478 90.7447L85.0487 54.0793C85.7958 53.0679 85.5937 51.6313 84.5983 50.8727Z" fill="#6C6C6C"/>
<path d="M60.7485 68.7465C64.5345 68.7465 67.4987 64.7205 67.4987 59.5802C67.4987 54.4398 64.5345 50.4138 60.7485 50.4138C56.9625 50.4138 53.9983 54.4398 53.9983 59.5802C53.9983 64.7205 56.9625 68.7465 60.7485 68.7465ZM60.7485 54.9971C61.6669 54.9971 62.9986 56.783 62.9986 59.5802C62.9986 62.3775 61.6669 64.1632 60.7485 64.1632C59.83 64.1632 58.4984 62.3773 58.4984 59.5802C58.4984 56.7828 59.83 54.9971 60.7485 54.9971Z" fill="#6C6C6C"/>
<path d="M78.749 73.3296C74.963 73.3296 71.9988 77.3556 71.9988 82.496C71.9988 87.6364 74.963 91.6624 78.749 91.6624C82.535 91.6624 85.4992 87.6364 85.4992 82.496C85.4992 77.3556 82.535 73.3296 78.749 73.3296ZM78.749 87.0791C77.8305 87.0791 76.4989 85.2932 76.4989 82.496C76.4989 79.6988 77.8305 77.9129 78.749 77.9129C79.6674 77.9129 80.9991 79.6988 80.9991 82.496C80.9991 85.2932 79.6674 87.0791 78.749 87.0791Z" fill="#6C6C6C"/>
</g>
<defs>
<clipPath id="clip0">
<rect width="108" height="109.992" fill="white"/>
</clipPath>
</defs>
</svg>
