<svg width="512" height="512" viewBox="0 0 512 512" fill="green" xmlns="http://www.w3.org/2000/svg">
<rect width="512" height="512" fill="white"/>
<path d="M316.6 126.334L304.632 109.234C295.255 95.8813 289.62 80.2637 288.311 64C290.431 63.9966 292.462 63.1522 293.96 61.6523C295.457 60.1523 296.298 58.1195 296.298 56V32C296.293 27.758 294.606 23.6911 291.607 20.6916C288.607 17.692 284.54 16.0048 280.298 16H232C227.758 16.005 223.692 17.6924 220.692 20.6918C217.693 23.6913 216.005 27.7581 216 32V56C216.001 58.067 216.803 60.0533 218.237 61.542C219.671 63.0307 221.626 63.9059 223.691 63.984C222.385 80.2538 216.75 95.878 207.37 109.236L195.401 126.336C177.523 151.792 167.953 182.153 168 213.26V461.984C168 467.247 169.222 472.437 171.569 477.147C173.916 481.858 177.324 485.959 181.525 489.128C185.727 492.297 190.606 494.447 195.78 495.41C200.954 496.373 206.28 496.122 211.34 494.676L230.817 489.111C238.498 493.46 247.174 495.746 256 495.746C264.827 495.746 273.503 493.46 281.183 489.111L300.66 494.676C303.728 495.557 306.903 496.005 310.094 496.008C319.095 495.97 327.716 492.37 334.07 485.994C340.423 479.618 343.994 470.985 344 461.984V213.26C344.048 182.153 334.478 151.791 316.6 126.334V126.334ZM184 216H328V344H184V216ZM232 32H280.3V48H232V32ZM208.508 135.51L220.477 118.41C231.739 102.37 238.397 83.5536 239.73 64H272.27C273.603 83.5543 280.261 102.371 291.523 118.412L303.492 135.512C316.88 154.586 325.094 176.805 327.335 200H184.665C186.905 176.804 195.12 154.585 208.508 135.51V135.51ZM320.839 476.354C318.621 478.043 316.037 479.188 313.296 479.698C310.555 480.208 307.733 480.069 305.055 479.292L282.2 472.761C281.085 472.442 279.914 472.37 278.768 472.549C277.622 472.728 276.529 473.154 275.564 473.797C269.776 477.671 262.967 479.739 256.002 479.739C249.037 479.739 242.229 477.671 236.44 473.797C235.475 473.154 234.382 472.728 233.236 472.549C232.09 472.37 230.919 472.442 229.804 472.761L206.947 479.292C204.268 480.058 201.448 480.191 198.709 479.682C195.969 479.172 193.386 478.034 191.161 476.356C188.937 474.678 187.132 472.506 185.889 470.013C184.647 467.519 184 464.77 184 461.984V360H328V461.984C328.012 464.772 327.37 467.524 326.126 470.019C324.883 472.515 323.072 474.684 320.839 476.354V476.354Z" fill="none" fill-opacity="0"/>
<path d="M304 232C301.878 232 299.843 232.843 298.343 234.343C296.843 235.843 296 237.878 296 240V256C296 258.122 296.843 260.157 298.343 261.657C299.843 263.157 301.878 264 304 264C306.122 264 308.157 263.157 309.657 261.657C311.157 260.157 312 258.122 312 256V240C312 237.878 311.157 235.843 309.657 234.343C308.157 232.843 306.122 232 304 232Z" fill="none" fill-opacity="0" />
<path d="M304 280C301.878 280 299.843 280.843 298.343 282.343C296.843 283.843 296 285.878 296 288V320C296 322.122 296.843 324.157 298.343 325.657C299.843 327.157 301.878 328 304 328C306.122 328 308.157 327.157 309.657 325.657C311.157 324.157 312 322.122 312 320V288C312 285.878 311.157 283.843 309.657 282.343C308.157 280.843 306.122 280 304 280Z" fill="none" fill-opacity="0"/>
</svg>
