<svg width="110" height="110" viewBox="0 0 110 110" fill="none" xmlns="http://www.w3.org/2000/svg">
<path d="M29.37 11.66C28.93 12.1 28.6 13.97 28.6 15.95C28.6 18.7 27.72 20.02 23.87 22.77C20.68 24.97 18.04 28.16 16.17 32.01L13.2 37.84V65.23V92.62L16.39 95.81L19.58 99H56.43C91.19 99 93.28 98.89 95.04 96.91C96.8 95.04 96.91 92.29 96.58 70.73L96.25 46.75L91.96 38.5C89.32 33.44 87.34 28.05 87.01 24.75L86.35 19.25H77H67.65L67.32 22.77L66.99 26.29L62.37 22.99C58.74 20.35 57.64 18.81 57.2 15.62L56.65 11.55L43.34 11.22C36.08 11.11 29.81 11.33 29.37 11.66ZM52.8 17.05C52.8 18.37 50.93 18.7 42.9 18.7C34.87 18.7 33 18.37 33 17.05C33 15.73 34.87 15.4 42.9 15.4C50.93 15.4 52.8 15.73 52.8 17.05ZM59.4 25.85C64.02 29.04 67.54 34.98 68.64 41.14C69.41 44.99 69.3 45.32 67.43 44.66C62.7 42.68 53.9 42.68 48.51 44.44C43.34 46.09 42.46 46.09 37.29 44.44C32.01 42.68 24.31 42.79 19.58 44.55C17.93 45.21 17.6 44.77 17.6 41.8C17.6 36.85 20.46 31.46 25.41 26.95L29.7 23.1H42.57C54.56 23.1 55.77 23.32 59.4 25.85ZM82.5 25.3C82.5 27.17 81.73 27.5 77 27.5C72.27 27.5 71.5 27.17 71.5 25.3C71.5 23.43 72.27 23.1 77 23.1C81.73 23.1 82.5 23.43 82.5 25.3ZM88 39.82C91.08 46.09 92.4 50.27 92.4 53.68C92.4 57.64 92.07 58.41 90.64 57.86C89.65 57.53 87.78 57.2 86.35 57.2C84.04 57.2 83.71 56.65 83.38 52.47C83.05 47.85 83.05 47.85 78.1 47.3C73.15 46.75 73.15 46.75 72.49 41.8C72.16 39.05 71.5 35.53 71.06 33.77L70.18 30.8H76.89H83.71L88 39.82ZM41.69 50.82C46.86 53.35 51.04 54.45 55.88 54.78C63.91 55.33 64.35 56.32 59.95 64.46C57.53 69.08 57.2 70.95 57.2 82.06V94.6H38.72C25.85 94.6 19.8 94.16 18.92 93.28C17.93 92.29 17.6 85.8 17.6 70.84V49.72L20.68 48.62C26.84 46.31 34.1 47.08 41.69 50.82ZM62.7 48.95C62.7 50.16 61.38 50.6 57.31 50.6C54.34 50.6 51.04 50.27 50.05 49.94C46.86 48.73 50.49 47.3 56.98 47.3C61.38 47.3 62.7 47.74 62.7 48.95ZM79.2 52.8C79.2 54.78 78.43 55 73.15 55C67.87 55 67.1 54.78 67.1 52.8C67.1 50.82 67.87 50.6 73.15 50.6C78.43 50.6 79.2 50.82 79.2 52.8ZM81.62 65.45L84.59 71.5L79.42 71.72C73.48 71.83 62.26 71.39 61.82 70.95C61.6 70.73 62.81 68.09 64.35 65.01L67.32 59.4H73.04H78.65L81.62 65.45ZM90.64 62.26C93.17 63.25 93.28 94.6 90.75 94.6C89.43 94.6 89.1 92.51 89.1 82.72C89.1 73.04 88.66 70.07 86.9 66.55C85.69 64.13 84.7 62.04 84.7 61.93C84.7 61.38 88.88 61.6 90.64 62.26ZM82.94 75.46C84.37 76.01 84.7 77.99 84.7 85.36V94.6H73.15H61.6V86.57V78.54L65.23 78.87C67.1 79.09 70.73 78.32 73.15 77.11C77.88 74.8 80.19 74.47 82.94 75.46Z" fill="white"/>
</svg>
