<svg width="36" height="36" viewBox="0 0 36 36" fill="none" xmlns="http://www.w3.org/2000/svg">
<path d="M32.836 4.28906H3.16409C2.67703 4.28906 2.22106 4.4088 1.80853 4.60617L17.9297 20.7274L21.543 17.2548C21.543 17.2548 21.5433 17.2545 21.5433 17.2543C21.5434 17.2542 21.5437 17.2541 21.5437 17.2541L34.192 4.60645C33.7794 4.40895 33.3232 4.28906 32.836 4.28906Z" fill="white"/>
<path d="M35.6834 6.09802L23.7806 18.0001L35.6829 29.9024C35.8803 29.4899 36 29.0339 36 28.5468V7.45309C36 6.96631 35.8806 6.51041 35.6834 6.09802Z" fill="white"/>
<path d="M0.317109 6.09766C0.119742 6.51018 0 6.96616 0 7.45321V28.547C0 29.0337 0.119602 29.4898 0.316828 29.9022L12.2195 18.0001L0.317109 6.09766Z" fill="white"/>
<path d="M22.2892 19.4916L18.6755 22.9645C18.4694 23.1706 18.1996 23.2736 17.9298 23.2736C17.66 23.2736 17.3901 23.1706 17.1841 22.9645L13.711 19.4915L1.80804 31.3936C2.22064 31.5911 2.6769 31.711 3.16409 31.711H32.836C33.323 31.711 33.779 31.5913 34.1915 31.3939L22.2892 19.4916Z" fill="white"/>
</svg>
