<svg width="38" height="38" viewBox="0 0 38 38" fill="none" xmlns="http://www.w3.org/2000/svg">
<g clip-path="url(#clip0)">
<path d="M36.9658 27.8882L31.6627 22.5852C29.7688 20.6912 26.5491 21.4489 25.7916 23.9109C25.2234 25.6155 23.3294 26.5625 21.6249 26.1836C17.837 25.2367 12.7234 20.3124 11.7764 16.3352C11.2083 14.6306 12.3446 12.7366 14.0492 12.1685C16.5113 11.4109 17.2689 8.19126 15.3749 6.29733L10.0719 0.994315C8.55676 -0.331438 6.28404 -0.331438 4.95829 0.994315L1.35981 4.59279C-2.23866 8.38066 1.7386 18.4185 10.6401 27.32C19.5416 36.2215 29.5794 40.3882 33.3673 36.6003L36.9658 33.0018C38.2916 31.4866 38.2916 29.2139 36.9658 27.8882Z" fill="white"/>
</g>
<defs>
<clipPath id="clip0">
<rect width="38" height="38" fill="white"/>
</clipPath>
</defs>
</svg>
